# xmcd CD database file
# Copyright (C) 1995-1998 Ti Kan
#
# Track frame offsets:
#	150
#	9560
#	25428
#	35123
#	44538
#	57320
#	64973
#	77258
#	96360
#	103428
#	128348
#	136090
#	155108
#	166970
#	176670
#	198395
#	207905
#	219833
#	227805
#	235038
#	244838
#	254373
#	264888
#	272743
#
# Disc length: 3884 seconds
#
# Revision: 1
# Processed by: cddbd v1.4b41PL1 Copyright (c) Steve Scherf et al.
# Submitted via: CDex 1.30
#
DISCID=540f2a18
DTITLE=Momus - The Little Red Songbook
DYEAR=2000
DGENRE=Blues
TTITLE0=Old Friends, New Flame
TTITLE1=MC Escher
TTITLE2=Who Is Mr Jones
TTITLE3=Harry K-Tel
TTITLE4=Lucretia Borgia
TTITLE5=How To Spot A Invert
TTITLE6=Everyone I Have Ever Slept With
TTITLE7=Born To Be Adored
TTITLE8=Coming In A Girl's Mouth
TTITLE9=What Are You Wearing
TTITLE10=The New Decameron
TTITLE11=The Symphonies Of Beethoven
TTITLE12=Tragedy And Farce
TTITLE13=Miss X, An Ex-Lover
TTITLE14=A White Oriental Flower
TTITLE15=None
TTITLE16=None
TTITLE17=None
TTITLE18=None
TTITLE19=None
TTITLE20=None
TTITLE21=None
TTITLE22=None
TTITLE23=None
EXTD=YEAR: 2000  ID3G:   0
EXTT0=
EXTT1=
EXTT2=
EXTT3=
EXTT4=
EXTT5=
EXTT6=
EXTT7=
EXTT8=
EXTT9=
EXTT10=
EXTT11=
EXTT12=
EXTT13=
EXTT14=
EXTT15=
EXTT16=
EXTT17=
EXTT18=
EXTT19=
EXTT20=
EXTT21=
EXTT22=
EXTT23=
PLAYORDER=
